<?xml version="1.0" encoding="UTF-8" standalone="no" ?>
<!DOCTYPE svg PUBLIC "-//W3C//DTD SVG 1.1//EN" "http://www.w3.org/Graphics/SVG/1.1/DTD/svg11.dtd">
<svg xmlns="http://www.w3.org/2000/svg" xmlns:xlink="http://www.w3.org/1999/xlink" version="1.1" width="300" height="125" viewBox="0 0 300 125" xml:space="preserve">
<desc>Created with Fabric.js 3.6.6</desc>
<defs>
</defs>
<g transform="matrix(1 0 0 1 149.27 61.44)"  >
<g style=""   >
		<g transform="matrix(0.71 0 0 0.71 -97.19 0)" id="Layer_1"  >
<path style="stroke: none; stroke-width: 1; stroke-dasharray: none; stroke-linecap: butt; stroke-dashoffset: 0; stroke-linejoin: miter; stroke-miterlimit: 4; fill: rgb(255,255,255); fill-rule: nonzero; opacity: 1;"  transform=" translate(-491.65, -395.86)" d="M 466.9 378.5 c 1.8 6.8 2 13 2 13 c 5.6 -8 11.5 -15.2 19 -21.3 c 8.2 -6.6 13.9 -10.6 24.4 -15.3 c 9.3 -4.2 13.8 -5.4 18.4 -6.9 c 5.4 -1.7 9.1 -2.7 14.2 -3.9 c 4.9 -1.1 9.6 -2 9.6 -0.8 c 0 0.8 -5.5 2.8 -6.3 3.2 c -3.8 1.7 -7.4 3 -15.4 6.7 c -9.6 4.5 -16.6 9.6 -24.7 16.3 c -7.3 6 -14.3 14.2 -20.5 22.5 c -1.6 2.1 -5.9 7.1 -9.4 12.8 c -3.2 5.1 -6.1 10.5 -7.1 12.2 c -1.8 3.3 -5.3 10.8 -5.3 10.8 s 3.2 1.1 9 0.8 c 6.6 -0.4 11.7 -1.1 20.1 -5.4 c 9.4 -4.8 15.6 -10.6 22.4 -17.7 c 6.5 -6.9 11.2 -12.5 17 -21.2 c 3.7 -5.7 6.7 -9.9 11.6 -19.7 c 3.1 -6.2 4.4 -13 5.3 -13.2 c 1 -0.3 1.3 6.2 0.4 11.9 c -2.1 14 -3.5 18 -7.7 27 c -3 6.6 -7.5 13.5 -13.9 20 c -6.6 6.8 -12.1 11.5 -20.8 17.2 c -6.3 4.1 -10.7 6.2 -17.6 8.1 c -7.7 2.2 -16.7 1.8 -20.1 1.5 c -4.8 -0.3 -8.8 -1.5 -8.8 -1.5 c -1.4 2.4 -3.8 10.4 -4.6 13.7 c -0.8 3.3 -2.3 6.9 -3.1 8.3 c -1.2 2.2 -2.9 3.8 -4.4 3.2 c -2.9 -1 -4.4 -3.7 -5 -7.3 c -0.9 -5.6 -0.2 -11.5 0.5 -14.8 c 0.9 -4.7 2.7 -10.6 2.7 -10.6 c -1.6 -1.6 -6.5 -6.4 -12.1 -16.7 c -4.5 -8.2 -8 -19.2 -7.9 -30.1 c 0.1 -11.6 2.6 -22.8 7.8 -33.3 c 2.5 -5.1 4.6 -8.1 6.4 -11 c 1.9 -3 4.2 -6.2 4.4 -6.2 c 0.3 0 5.6 10.6 10.9 23 C 463.5 366.6 465.1 371.4 466.9 378.5 z M 480.6 347 c -2.6 1.9 -2.9 2.6 -4.6 4.4 c -1.8 1.9 -2.1 3.4 -1.8 5.9 c 0.1 0.6 0.5 2 0.8 2.6 c 1.3 2.1 3.1 3.1 5.3 3.1 c 1.3 0 3.7 -1.2 6.1 -4.4 c 2.4 -3.2 2.9 -4.4 2.9 -5.9 c 0 -1.2 -0.3 -2.6 -1.8 -4.2 C 485.9 346.6 482.5 345.7 480.6 347 z M 447.1 335 c 0 0 -1.3 3 -2.8 6.6 c -2.3 5.2 -5.3 12.4 -7.1 18.7 c -2.4 8.7 -4.1 21.5 -1.7 31 c 1 4 2.1 6.9 3.5 10.3 c 2.5 5.9 6.3 11.8 13.2 18.3 c 0 0 2.3 -3.1 3.2 -8.6 c 0.5 -3.2 0.5 -4 0.7 -6.6 c 0.3 -4 0.3 -8.3 0.4 -13.2 c 0.2 -6.4 -0.4 -13.5 -2 -23.1 c -0.9 -5.1 -2.5 -14.3 -3.7 -19.5 C 449.5 343.7 447.1 335 447.1 335 z" stroke-linecap="round" />
</g>
		<g transform="matrix(1 0 0 1 60.52 5.54)"  >
<g style=""   >
		<g transform="matrix(0.71 0 0 0.71 -28.33 21.02)" id="Layer_1"  >
<path style="stroke: none; stroke-width: 1; stroke-dasharray: none; stroke-linecap: butt; stroke-dashoffset: 0; stroke-linejoin: miter; stroke-miterlimit: 4; fill: rgb(255,255,255); fill-rule: nonzero; opacity: 1;"  transform=" translate(-642.9, -431.85)" d="M 661 449.5 c -4.9 4.7 -11.4 7.4 -18.1 7.4 c -5.8 0 -11.6 -2.1 -16.2 -5.7 c -6 -4.8 -9.3 -11.6 -9.3 -19.3 c 0 -6.8 2.6 -13 7.5 -17.7 c 4.8 -4.7 11.4 -7.4 18 -7.4 s 13.3 2.7 18.1 7.4 c 4.9 4.7 7.4 11 7.4 17.7 S 665.8 444.8 661 449.5 z M 655.4 431.8 c 0 -7.8 -5.2 -14 -12.5 -14 c -7.4 0 -12.5 6.2 -12.5 14 c 0 7.9 4.9 14 12.5 14 C 650.3 445.8 655.4 439.6 655.4 431.8 z" stroke-linecap="round" />
</g>
		<g transform="matrix(0.71 0 0 0.71 6.64 20.87)" id="Layer_1"  >
<path style="stroke: none; stroke-width: 1; stroke-dasharray: none; stroke-linecap: butt; stroke-dashoffset: 0; stroke-linejoin: miter; stroke-miterlimit: 4; fill: rgb(255,255,255); fill-rule: nonzero; opacity: 1;"  transform=" translate(-692.15, -431.65)" d="M 673.3 407.8 h 13.6 c 0.3 0 0.5 0 0.8 0 c 6.6 0 11.7 0.1 15.8 3.2 c 3.5 2.7 5.3 6.7 5.3 11.7 c 0 7.4 -3.7 12.2 -10.7 13.6 l 13 19.2 h -14.7 l -11 -18.7 v 18.7 h -12.2 v -47.7 H 673.3 z M 687.9 430.5 c 5.5 0 8.1 -1.8 8.1 -6 c 0 -5 -2.5 -6.6 -7.9 -6.6 h -2.6 v 12.6 H 687.9 L 687.9 430.5 z" stroke-linecap="round" />
</g>
		<g transform="matrix(0.71 0 0 0.71 36.1 20.91)" id="Layer_1"  >
<path style="stroke: none; stroke-width: 1; stroke-dasharray: none; stroke-linecap: butt; stroke-dashoffset: 0; stroke-linejoin: miter; stroke-miterlimit: 4; fill: rgb(255,255,255); fill-rule: nonzero; opacity: 1;"  transform=" translate(-733.65, -431.7)" d="M 715.8 455.6 v -47.8 h 13.6 c 0.3 0 0.7 0 0.9 0 c 6 0 10.8 0.1 14.5 2.5 c 4.2 2.7 6.7 7.6 6.7 13.8 c 0 6.4 -2.3 11.1 -6.6 13.6 c -3.3 1.9 -6.9 2.1 -11.4 2.1 c -1 0 -2.1 0 -3.1 0 H 728 v 15.8 H 715.8 z M 730.5 429.2 c 5.6 0 8.4 -1 8.4 -5.6 s -3 -5.6 -8.3 -5.6 H 728 v 11.2 L 730.5 429.2 L 730.5 429.2 z" stroke-linecap="round" />
</g>
		<g transform="matrix(0.71 0 0 0.71 62.37 20.98)" id="Layer_1"  >
<path style="stroke: none; stroke-width: 1; stroke-dasharray: none; stroke-linecap: butt; stroke-dashoffset: 0; stroke-linejoin: miter; stroke-miterlimit: 4; fill: rgb(255,255,255); fill-rule: nonzero; opacity: 1;"  transform=" translate(-770.65, -431.8)" d="M 770.3 446.7 c 3.6 0 5.9 -2.1 5.9 -4.9 c 0 -3.8 -2.6 -4.9 -8 -6.4 c -8.6 -2.3 -12.8 -5.7 -12.8 -13.2 c 0 -8.9 6.5 -15.5 16.5 -15.5 c 5.3 0 10 1.4 14.2 4.3 l -4.1 9.4 c -3 -2.5 -6.2 -3.8 -9.2 -3.8 c -3.2 0 -5.3 1.7 -5.3 4 c 0 3.4 3.3 4.1 7.6 5.3 c 8.5 2.3 13.2 5.4 13.2 14.2 c 0 10 -7.1 16.8 -18.3 16.8 c -6.7 0 -11.8 -2.1 -17 -7 l 5.9 -9.7 C 762.7 444.4 766.5 446.7 770.3 446.7 z" stroke-linecap="round" />
</g>
		<g transform="matrix(0.71 0 0 0.71 -64.61 21.05)" id="Layer_1"  >
<path style="stroke: none; stroke-width: 1; stroke-dasharray: none; stroke-linecap: butt; stroke-dashoffset: 0; stroke-linejoin: miter; stroke-miterlimit: 4; fill: rgb(255,255,255); fill-rule: nonzero; opacity: 1;"  transform=" translate(-591.8, -431.9)" d="M 593.8 445.8 c -7.5 0 -12.3 -5.2 -12.5 -14 c 0.2 -8.9 5.1 -14 12.5 -14 c 4.2 0 7.6 1.8 10.2 5.5 l 11.3 -5.4 c -4.9 -7.3 -12.2 -11 -21.5 -11 c -14.7 0 -25.5 10.5 -25.5 25 l 0 0 l 0 0 c 0 14.5 10.8 25 25.5 25 c 9.3 0 16.6 -3.7 21.5 -11 l -11.3 -5.4 C 601.4 444 598.1 445.8 593.8 445.8 z" stroke-linecap="round" />
</g>
		<g transform="matrix(0.71 0 0 0.71 -61.66 -21.09)" id="Layer_1"  >
<path style="stroke: none; stroke-width: 1; stroke-dasharray: none; stroke-linecap: butt; stroke-dashoffset: 0; stroke-linejoin: miter; stroke-miterlimit: 4; fill: rgb(255,255,255); fill-rule: nonzero; opacity: 1;"  transform=" translate(-595.95, -372.55)" d="M 609 396.4 v -31.3 c -0.7 4.2 -1.7 7.1 -2.2 9 l -6.5 22.4 h -8.7 l -6.5 -22.4 c -0.5 -1.9 -1.5 -4.7 -2.2 -9 v 31.3 h -12.2 v -47.8 h 16.5 l 7.2 24.7 c 0.5 1.5 1.1 3.6 1.5 6.5 c 0.3 -2.7 0.9 -4.8 1.5 -6.5 l 7.3 -24.6 h 16.5 v 47.8 H 609 V 396.4 z" stroke-linecap="round" />
</g>
		<g transform="matrix(0.71 0 0 0.71 -28.04 -21.12)" id="Layer_1"  >
<path style="stroke: none; stroke-width: 1; stroke-dasharray: none; stroke-linecap: butt; stroke-dashoffset: 0; stroke-linejoin: miter; stroke-miterlimit: 4; fill: rgb(255,255,255); fill-rule: nonzero; opacity: 1;"  transform=" translate(-643.3, -372.5)" d="M 628.6 348.6 h 29.3 v 10.5 h -16.6 v 8.3 H 657 v 10.2 h -15.6 v 8.1 H 658 v 10.7 h -29.3 v -47.8 H 628.6 z" stroke-linecap="round" />
</g>
		<g transform="matrix(0.71 0 0 0.71 0.39 -21.16)" id="Layer_1"  >
<path style="stroke: none; stroke-width: 1; stroke-dasharray: none; stroke-linecap: butt; stroke-dashoffset: 0; stroke-linejoin: miter; stroke-miterlimit: 4; fill: rgb(255,255,255); fill-rule: nonzero; opacity: 1;"  transform=" translate(-683.35, -372.45)" d="M 664.5 348.6 h 13.6 c 0.3 0 0.5 0 0.8 0 c 6.6 0 11.7 0.1 15.8 3.2 c 3.5 2.7 5.3 6.7 5.3 11.7 c 0 7.4 -3.7 12.2 -10.7 13.6 l 13 19.2 h -14.7 l -11 -18.7 v 18.7 h -12.2 v -47.7 H 664.5 z M 679.2 371.3 c 5.5 0 8.1 -1.8 8.1 -6 c 0 -5 -2.5 -6.6 -7.9 -6.6 h -2.6 v 12.6 L 679.2 371.3 L 679.2 371.3 z" stroke-linecap="round" />
</g>
		<g transform="matrix(0.71 0 0 0.71 31.67 -21.05)" id="Layer_1"  >
<path style="stroke: none; stroke-width: 1; stroke-dasharray: none; stroke-linecap: butt; stroke-dashoffset: 0; stroke-linejoin: miter; stroke-miterlimit: 4; fill: rgb(255,255,255); fill-rule: nonzero; opacity: 1;"  transform=" translate(-727.4, -372.6)" d="M 729.4 386.5 c -7.5 0 -12.3 -5.2 -12.5 -14 c 0.2 -8.9 5.1 -14 12.5 -14 c 4.2 0 7.6 1.8 10.2 5.5 l 11.3 -5.4 c -4.9 -7.3 -12.2 -11 -21.5 -11 c -14.7 0 -25.5 10.5 -25.5 25 l 0 0 l 0 0 c 0 14.5 10.8 25 25.5 25 c 9.3 0 16.6 -3.7 21.5 -11 l -11.3 -5.4 C 736.9 384.7 733.6 386.5 729.4 386.5 z" stroke-linecap="round" />
</g>
		<g transform="matrix(0.71 0 0 0.71 64.25 -20.84)" id="Layer_1"  >
<path style="stroke: none; stroke-width: 1; stroke-dasharray: none; stroke-linecap: butt; stroke-dashoffset: 0; stroke-linejoin: miter; stroke-miterlimit: 4; fill: rgb(255,255,255); fill-rule: nonzero; opacity: 1;"  transform=" translate(-773.3, -372.9)" d="M 753.8 397.3 h 14.7 l 28.8 -48.8 h -14.8 l -8.6 14.5 l -10.3 -14.5 h -14.3 l 18 25.8 L 753.8 397.3 z" stroke-linecap="round" />
</g>
</g>
</g>
</g>
</g>
</svg>